<?xml version="1.0" encoding="UTF-8" standalone="no"?>
<!-- Created with Inkscape (http://www.inkscape.org/) -->

<svg
   width="119.97329"
   height="120.03412"
   viewBox="0 0 119.97329 120.03412"
   version="1.1"
   id="svg1"
   xml:space="preserve"
   inkscape:version="1.3 (0e150ed6c4, 2023-07-21)"
   sodipodi:docname="logo.svg"
   xmlns:inkscape="http://www.inkscape.org/namespaces/inkscape"
   xmlns:sodipodi="http://sodipodi.sourceforge.net/DTD/sodipodi-0.dtd"
   xmlns="http://www.w3.org/2000/svg"
   xmlns:svg="http://www.w3.org/2000/svg"><sodipodi:namedview
     id="namedview1"
     pagecolor="#ffffff"
     bordercolor="#000000"
     borderopacity="0.25"
     inkscape:showpageshadow="2"
     inkscape:pageopacity="0.0"
     inkscape:pagecheckerboard="0"
     inkscape:deskcolor="#d1d1d1"
     inkscape:document-units="px"
     inkscape:zoom="2.54375"
     inkscape:cx="-66.240786"
     inkscape:cy="77.641278"
     inkscape:window-width="5055"
     inkscape:window-height="1417"
     inkscape:window-x="2217"
     inkscape:window-y="1357"
     inkscape:window-maximized="1"
     inkscape:current-layer="layer1"
     inkscape:export-bgcolor="#ffffff00" /><defs
     id="defs1" /><g
     inkscape:label="Layer 1"
     inkscape:groupmode="layer"
     id="layer1"
     transform="translate(-0.01027946,0.01706204)"><path
       sodipodi:type="star"
       style="fill:#2b0000;stroke:#2b0000;stroke-width:1.00157"
       id="path1"
       inkscape:flatsided="true"
       sodipodi:sides="3"
       sodipodi:cx="51.498772"
       sodipodi:cy="48.943489"
       sodipodi:r1="50.109146"
       sodipodi:r2="40.841854"
       sodipodi:arg1="2.6185607"
       sodipodi:arg2="3.6657583"
       inkscape:rounded="0"
       inkscape:randomized="0"
       d="M 8.0887837,73.97346 51.527175,-1.165649 94.880357,74.022656 Z"
       transform="matrix(1.355227,0,0,1.5651626,-9.7759704,3.3749878)" /><path
       style="fill:#aa0000;stroke:none;stroke-width:0.449668"
       d="m 90.448121,17.719818 c -0.257671,0 -0.455838,1.175267 -0.455838,2.703287 0,2.551827 -0.43163,3.923571 -1.654644,5.260786 -0.692408,0.757145 -1.030098,0.730919 -2.008581,-0.154575 -0.759367,-0.687226 -0.840219,-0.655794 -1.277879,0.495339 -0.35101,0.92297 -0.661647,1.149642 -1.248015,0.908122 -2.173924,-0.895469 -2.354602,-0.835427 -2.354602,0.790437 0,1.52112 -0.05912,1.573462 -2.086741,1.851372 -1.147463,0.157293 -4.367909,0.286313 -7.156931,0.286313 -3.185827,0 -5.129797,0.177961 -5.230063,0.478652 -0.08772,0.263274 -1.015492,0.593134 -2.061286,0.733346 -1.045807,0.140264 -1.901437,0.439719 -1.901437,0.665723 0,0.22599 -0.522061,0.933117 -1.160187,1.571207 -1.079971,1.07996 -1.166358,1.475286 -1.245367,5.711336 -0.08355,4.480393 -0.10344,4.559002 -1.314743,5.13958 -1.032565,0.494889 -1.155689,0.730714 -0.763225,1.464062 0.257215,0.48058 0.737145,0.873871 1.066222,0.873871 0.713262,0 0.251185,3.345078 -0.576118,4.172618 -0.276914,0.276889 -0.503268,1.060703 -0.503268,1.741595 0,0.972796 -0.33712,1.398016 -1.573844,1.984867 -0.865624,0.410778 -1.573843,1.00887 -1.573843,1.328809 0,0.321451 -1.005966,0.839121 -2.248356,1.15755 -1.236593,0.316903 -2.248342,0.703061 -2.248342,0.85806 0,0.155015 -0.829954,0.748141 -1.844368,1.318269 -1.111988,0.624968 -2.080672,1.603085 -2.439778,2.462638 -0.327672,0.784121 -1.065935,1.646873 -1.640611,1.917252 -0.574687,0.270379 -2.461585,1.153856 -4.192819,1.962915 -1.80047,0.841441 -3.868239,2.240793 -4.831297,3.270644 -1.653253,1.767944 -1.715576,1.791841 -3.425218,1.27962 -0.957616,-0.286896 -2.31845,-0.521683 -3.024747,-0.521683 -0.706298,0 -2.67774,-0.440024 -4.380772,-0.977507 -2.47116,-0.779912 -3.266536,-0.870692 -3.940725,-0.449667 -1.245359,0.777728 -1.717827,0.654774 -2.287873,-0.596337 -0.522157,-1.145955 -1.875977,-1.50987 -2.409107,-0.647286 -0.162284,0.262582 -0.781076,0.661984 -1.375315,0.887922 -0.688175,0.261647 -1.080285,0.770178 -1.080285,1.399079 0,0.543109 -0.354115,1.386669 -0.786923,1.875085 -0.576792,0.6509 -0.636823,0.940525 -0.224834,1.084648 0.309148,0.10811 0.562086,0.490196 0.562086,0.849276 0,0.505322 -0.19592,0.547893 -0.866828,0.188826 -1.570607,-0.84057 -2.376729,-0.115651 -2.046356,1.83996 0.229105,1.356132 0.137509,1.798351 -0.417158,2.011217 -0.6292706,0.241453 -0.6112378,0.413684 0.159811,1.496551 0.865661,1.215674 0.86521,1.228707 -0.06413,2.024394 -0.7055754,0.604341 -0.794789,0.887196 -0.364456,1.153169 0.402679,0.24886 0.255683,0.448769 -0.5006179,0.679763 -1.3949185,0.42608 -2.6936561,1.578119 -2.3695344,2.102568 0.2742097,0.443689 -1.8413073,2.615455 -2.5478271,2.615455 -0.2345939,0 -0.425973,0.202352 -0.425973,0.449664 0,0.705777 2.8389013,0.525777 3.9469305,-0.250302 0.9648562,-0.67585 0.9994356,-0.654942 0.9994356,0.62269 0,1.070263 -0.3009172,1.466014 -1.5738432,2.070057 -0.8656141,0.410773 -1.5738432,1.055396 -1.5738432,1.432448 0,0.790101 -1.0586587,1.970815 -1.7670672,1.970815 -0.2649458,0 -0.4831704,0.252942 -0.4865426,0.562091 -0.00455,0.309141 -0.7112884,1.018616 -1.5738434,1.577355 -0.8625562,0.558731 -1.56858272,1.216392 -1.56858272,1.46142 0,0.737763 1.15353732,0.504661 2.41697452,-0.489182 1.3448278,-1.057822 2.6050709,-1.013238 1.5589155,0.05531 -0.9027572,0.922124 -2.1772119,2.811693 -2.1772119,3.227623 0,0.831545 1.1556968,0.22538 2.5452209,-1.335854 1.7888757,-2.009903 1.9059251,-1.684419 0.3776326,1.053044 -0.6182963,1.107485 -1.1241742,2.108005 -1.1241742,2.222885 0,1.03603 3.5218582,-1.822765 4.1699653,-3.384825 0.3952151,-0.952411 0.4981896,-1.001373 0.6604766,-0.314407 0.1056707,0.447454 -0.2013169,1.155683 -0.6815207,1.573837 -0.4800193,0.41799 -1.0158926,1.215895 -1.1918032,1.772335 -0.4495345,1.42542 0.812014,1.34266 1.8566401,-0.12203 0.4443627,-0.62304 1.1621261,-1.564305 1.5949331,-2.092021 0.432808,-0.527705 0.786923,-1.350252 0.786923,-1.82767 0,-0.496624 0.240482,-0.78658 0.562087,-0.677126 0.309147,0.105164 0.562086,0.779984 0.562086,1.499193 0,1.777479 0.765699,2.009864 1.509722,0.457572 0.466128,-0.972754 0.492884,-1.534567 0.112417,-2.369561 -0.274253,-0.601882 -0.498862,-1.67475 -0.498862,-2.384474 0,-0.70972 -0.252939,-1.408479 -0.562087,-1.552762 -0.44967,-0.20987 -0.44967,-0.315358 0,-0.525209 0.309148,-0.144267 0.560287,-0.801912 0.558579,-1.461427 -0.0049,-1.60199 1.856327,-5.470686 2.632142,-5.470686 0.425386,0 0.533802,-0.332219 0.348673,-1.06973 -0.576071,-2.2952 3.205109,-5.020381 5.363525,-3.865225 1.370051,0.733222 1.798992,0.371231 1.025831,-0.866831 -0.693212,-1.110026 -2.449621,-1.237986 -3.819585,-0.278424 -0.881352,0.617337 -0.963777,0.586682 -1.157539,-0.426821 -0.114716,-0.600104 0.01479,-1.333729 0.287206,-1.630058 0.366569,-0.398793 0.348403,-0.456202 -0.06762,-0.221324 -0.30915,0.174543 -0.562088,0.128256 -0.562088,-0.102788 0,-0.231006 0.574002,-0.5343 1.275216,-0.6745 1.135641,-0.227119 1.25233,-0.409953 1.067968,-1.666066 -0.194707,-1.326556 -0.130492,-1.400911 1.085547,-1.262064 1.198683,0.136963 1.30377,0.303022 1.43067,2.28348 0.0754,1.174754 0.313911,2.135927 0.530475,2.135927 0.216559,0 0.458707,0.455306 0.537488,1.011761 0.186119,1.310729 1.000382,1.3093 1.186544,-0.0013 0.08615,-0.606784 -0.13836,-1.122398 -0.559434,-1.284026 -1.106457,-0.424573 -0.408568,-0.984525 1.226024,-0.984525 h 1.486924 l -0.268767,1.866302 c -0.154777,1.074434 -0.492748,1.819806 -0.795691,1.758275 -0.289408,-0.05886 -0.424984,0.157261 -0.301234,0.479528 0.123656,0.322293 -0.287969,1.139474 -0.915169,1.81626 -0.627198,0.676747 -1.140854,1.352427 -1.140854,1.501813 0,0.149412 -0.459068,0.898124 -1.020528,1.66343 -0.5615,0.765305 -1.319285,1.977444 -1.684508,2.693628 -0.841556,1.650175 -0.921101,7.530509 -0.105413,7.803363 0.309148,0.103416 0.562087,0.379737 0.562087,0.614788 0,0.869139 2.589737,2.920189 4.354421,3.448923 3.556123,1.065435 7.061746,0.4792 8.661406,-1.448275 0.95096,-1.145806 1.541189,-0.801598 0.735118,0.428593 -0.686466,1.046972 -0.686284,1.153012 -0.0065,1.414012 0.412657,0.158365 0.909989,0.007 1.132936,-0.34517 0.314237,-0.496119 0.398909,-0.454926 0.404029,0.19674 0.01038,1.293295 1.07138,0.618995 1.702945,-1.082885 l 0.570854,-1.540471 -0.156298,1.46142 c -0.08602,0.803796 -0.106301,1.461431 -0.04575,1.461431 0.06056,0 0.45758,0.1337 0.882659,0.29686 0.65688,0.25201 0.740734,0.0753 0.556821,-1.177761 -0.21575,-1.469892 -0.214451,-1.471678 0.5419,-0.468989 1.033931,1.37074 2.698867,0.883795 2.698867,-0.789552 0,-1.045164 0.0642,-1.093934 0.562096,-0.427727 0.850407,1.137805 1.946568,0.296064 1.267339,-0.973092 -0.281619,-0.526101 -0.326412,-0.956442 -0.09927,-0.956442 0.227172,0 0.519317,0.405451 0.649004,0.901095 0.156793,0.599684 0.473771,0.810135 0.94853,0.627962 0.392697,-0.1506 0.575584,-0.497679 0.40664,-0.77112 -0.168994,-0.273402 0.450615,-0.04945 1.377105,0.497104 0.926504,0.546651 1.768191,0.993314 1.869822,0.993314 0.101621,0 0.469003,-0.542973 0.816777,-1.206741 l 0.632371,-1.206722 0.321423,1.0943 c 0.653329,2.223944 1.375181,3.567511 1.916356,3.567511 0.305919,0 0.687454,0.52454 0.848392,1.16545 0.247457,0.98586 0.474044,1.12348 1.470238,0.89145 2.92201,-0.68062 3.650918,-0.73732 3.650918,-0.28458 0,0.84206 1.797415,0.53377 1.812749,-0.31089 0.0078,-0.43282 0.312209,-1.18033 0.676265,-1.661695 0.513653,-0.679161 0.782239,-0.754682 1.199664,-0.33723 0.857842,0.857815 2.116202,0.628255 3.247838,-0.592833 0.576481,-0.622047 1.33664,-1.02057 1.688872,-0.88529 0.369802,0.141907 1.447302,-0.520746 2.546973,-1.566806 1.641339,-1.561358 2.183643,-1.813607 3.910004,-1.813607 1.684507,0 2.005083,0.139587 2.005083,0.87298 0,0.480032 -0.202352,0.997741 -0.449666,1.15053 -0.247326,0.152829 -0.449679,0.759906 -0.449679,1.349006 0,0.589077 -0.228562,1.21253 -0.507633,1.38501 -0.868302,0.53665 0.868092,1.179385 2.322995,0.859825 1.294109,-0.284225 1.857453,0.30078 0.874747,0.90812 -0.983603,0.60792 0.133909,1.04747 2.520618,0.99156 1.917527,-0.0448 2.758551,-0.29466 3.592949,-1.06797 1.12089,-1.03881 1.506895,-3.439726 0.639388,-3.975881 -0.247315,-0.152857 -0.449666,-0.647109 -0.449666,-1.098717 0,-0.451571 -0.50588,-1.152912 -1.124176,-1.558027 -0.618298,-0.405114 -1.124168,-1.13811 -1.124168,-1.629181 0,-0.491072 -0.539653,-1.498002 -1.198831,-2.237799 -1.031397,-1.157614 -1.517225,-1.346543 -3.484937,-1.351649 -1.257542,-0.0038 -2.544725,-0.17114 -2.860479,-0.371503 -0.672303,-0.42664 -6.185389,0.233605 -7.406377,0.887039 -1.021688,0.546761 -7.452781,0.884375 -7.748032,0.406641 -0.116304,-0.188279 -1.154702,-0.607174 -2.308065,-0.930078 -1.333756,-0.373426 -2.175496,-0.886688 -2.312472,-1.410488 -0.11838,-0.452966 -0.567072,-0.823808 -0.99592,-0.823808 -1.320683,0 -3.61274,-0.958521 -3.599109,-1.505349 0.0065,-0.284932 0.584343,-1.078487 1.283128,-1.763539 0.698787,-0.685049 1.649564,-1.949752 2.113081,-2.810437 0.463481,-0.860699 1.043378,-1.56506 1.288405,-1.56506 0.789034,0 2.497776,-2.354418 2.497776,-3.441913 0,-0.579832 -0.188007,-1.054785 -0.418064,-1.054785 -0.241103,0 -0.270614,-0.52367 -0.0694,-1.236596 0.406094,-1.438672 0.217179,-2.180666 -0.929207,-3.65796 -1.079294,-1.390801 -1.049978,-1.850488 0.115907,-1.850488 0.708012,0 0.872368,0.193855 0.652563,0.766724 -0.331856,0.864818 1.041703,3.729976 1.788151,3.729976 0.930378,0 2.027748,-1.133131 2.394131,-2.473188 l 0.368865,-1.349012 0.96958,1.573844 c 0.631878,1.025549 0.970479,1.297904 0.971375,0.781654 0,-0.667626 0.274525,-0.748687 1.738071,-0.514666 1.443754,0.230876 1.899579,0.103699 2.700672,-0.756184 0.530024,-0.568929 0.865247,-1.349009 0.744734,-1.733677 -0.19974,-0.637775 1.478828,-1.824147 2.58124,-1.824147 0.850016,0 5.4875,-2.361914 6.024853,-3.068653 0.530519,-0.697656 0.573958,-0.693835 0.587591,0.05536 0.02156,1.225861 -2.032919,2.866187 -3.923195,3.133628 -2.778328,0.393061 -4.156837,1.107453 -4.156837,2.152624 0,1.411361 -3.114371,4.273816 -4.4967,4.133095 -0.932702,-0.09499 -1.381015,0.312769 -2.633034,2.393259 -0.829954,1.379185 -1.778627,2.611258 -2.107833,2.73754 -0.329102,0.126307 -0.488337,0.516328 -0.353933,0.866844 0.176635,0.460218 -0.120201,0.636737 -1.067964,0.636737 -1.389697,0 -3.280297,1.414608 -3.280297,2.453867 0,0.340718 -0.151764,0.686921 -0.33725,0.769358 -0.58416,0.25962 -2.857246,3.17551 -2.642665,3.390077 0.476564,0.476591 2.195519,-0.961694 3.888929,-3.253958 1.419376,-1.921371 2.084752,-2.461987 3.039675,-2.468783 0.977444,-0.0078 1.477528,-0.438647 2.495981,-2.155249 1.242571,-2.09428 3.920361,-5.441407 4.054946,-5.068449 0.03691,0.102787 0.840023,-0.179249 1.783747,-0.627082 1.201287,-0.570035 1.943019,-1.339264 2.473176,-2.563644 0.618128,-1.427407 1.087702,-1.838233 2.555743,-2.235166 3.159163,-0.854177 4.709031,-1.857114 5.271346,-3.41205 0.341252,-0.943735 0.829589,-1.466691 1.37096,-1.466691 1.563137,0 2.251033,-1.195648 1.927765,-3.351449 -0.25563,-1.704738 -0.177337,-2.007568 0.584031,-2.249223 0.483894,-0.153571 0.991035,-0.568433 1.126829,-0.922176 0.135767,-0.353758 0.964461,-0.942442 1.840818,-1.308609 1.234385,-0.515759 1.593179,-0.924093 1.593179,-1.812731 0,-1.468365 -0.794295,-1.482663 -1.34901,-0.0237 -0.238502,0.627366 -0.787019,1.124175 -1.241,1.124175 -0.447418,0 -1.172427,0.60706 -1.61071,1.349011 -0.438295,0.741949 -1.094407,1.349008 -1.458774,1.349008 -0.51442,0 -0.635257,0.519539 -0.537499,2.32212 0.124359,2.293714 0.107469,2.327344 -1.389435,2.725239 -1.247966,0.331715 -1.657167,0.250004 -2.322089,-0.463726 -0.790437,-0.848349 -0.765916,-0.861967 1.177728,-0.642878 1.741891,0.19633 1.985749,0.11673 1.985749,-0.648158 0,-0.479522 -0.29733,-1.265032 -0.660438,-1.745104 -0.812685,-1.074305 -0.887833,-2.511495 -0.126439,-2.412581 1.868419,0.24261 2.250369,-0.02491 1.97873,-1.38326 -0.262425,-1.312131 -0.222728,-1.349011 1.462325,-1.349011 2.208683,0 3.112472,-1.065307 2.165786,-2.553984 -0.801716,-1.260648 0.545581,-0.865482 1.882988,0.552429 0.805094,0.853576 1.684558,1.551887 1.954131,1.551887 0.846769,0 2.135027,1.449487 2.135027,2.402046 0,1.261138 1.737067,2.993991 3.001009,2.993991 0.575217,0 1.04602,-0.202352 1.04602,-0.449672 0,-0.760507 1.106956,-0.498602 1.923418,0.454941 1.025692,1.197951 0.982483,1.953301 -0.09573,1.671327 -0.518785,-0.135658 -0.972958,0.03953 -1.124182,0.433866 -0.369894,0.964026 -0.31063,3.288507 0.08345,3.271523 0.690875,-0.02936 1.911097,-1.232084 1.911097,-1.88387 0,-0.451569 0.335,-0.617229 1.011756,-0.501493 1.921794,0.328859 2.248574,-0.353622 2.177204,-4.543239 -0.0716,-4.20653 -0.60963,-5.6481 -2.107829,-5.6481 -0.522688,0 -1.496001,-0.50588 -2.16313,-1.124172 -0.667168,-0.618292 -1.611386,-1.124175 -2.098205,-1.124175 -0.486801,0 -1.686023,-0.505883 -2.665491,-1.124176 -0.97943,-0.61829 -1.966413,-1.124173 -2.193001,-1.124173 -0.393997,0 -1.730818,-1.489566 -4.051437,-4.513382 -0.85333,-1.112483 -1.299229,-1.341896 -2.173701,-1.122417 -0.706206,0.177243 -0.997052,0.10874 -0.811516,-0.191464 0.159002,-0.257239 0.08668,-0.46811 -0.160705,-0.46811 -0.247326,0 -0.574414,0.20235 -0.727205,0.449669 -0.152842,0.247319 -0.673252,0.449669 -1.15669,0.449669 -1.481348,0 -4.464186,2.014133 -4.464186,3.014189 0,0.481143 -3.048121,2.381846 -3.819534,2.381846 -0.141915,0 -0.16719,-0.556469 -0.05536,-1.236591 0.111753,-0.680122 0.220247,-1.464236 0.240663,-1.742468 0.04094,-0.557349 2.44356,-1.269801 3.859064,-1.144375 0.667444,0.05907 0.741733,-0.02229 0.288961,-0.315298 -0.42543,-0.275369 -0.459514,-0.488078 -0.112406,-0.70261 0.273719,-0.169138 0.497968,-0.68692 0.497968,-1.15052 0,-0.574376 0.393996,-0.902564 1.236594,-1.030199 1.150973,-0.174321 1.135418,-0.191985 -0.224833,-0.254697 -0.803782,-0.03704 -1.461426,0.147351 -1.461426,0.409271 0,0.261933 -0.183238,0.362466 -0.407501,0.223954 -0.224247,-0.138596 -0.308426,0.13015 -0.1862,0.597221 0.269795,1.031723 -0.385679,1.483356 -2.489873,1.715241 -2.354821,0.259487 -2.762671,0.791351 -2.54957,3.325978 0.101876,1.212444 -0.0053,2.204433 -0.238921,2.204433 -0.233018,0 -0.423313,0.489608 -0.423313,1.087288 0,0.597675 -0.159509,1.154161 -0.353934,1.236592 -0.488521,0.20714 -2.365217,2.922726 -3.337408,4.829555 -1.011218,1.983411 -1.091303,7.804197 -0.130843,9.484336 0.35344,0.61831 0.650224,1.495447 0.658722,1.948869 0.02066,1.069484 -1.05606,0.721734 -1.275267,-0.411904 -0.09175,-0.474148 -0.369319,-1.368334 -0.6174,-1.986631 -0.24817,-0.618296 -0.411722,-2.178938 -0.363602,-3.468249 0.08122,-2.174289 0.0038,-2.364787 -1.06886,-2.633905 -0.635788,-0.159571 -1.155793,-0.588217 -1.155793,-0.952035 0,-0.493037 -0.343357,-0.594713 -1.348999,-0.40049 -0.741967,0.143322 -1.981342,0.383036 -2.754236,0.533107 -0.902438,0.17527 -1.304439,0.109207 -1.122412,-0.185316 0.155899,-0.252246 1.14323,-0.601163 2.193041,-0.775503 1.049794,-0.174339 2.313147,-0.389937 2.807774,-0.478653 1.521995,-0.2732 4.259455,-1.636999 4.030348,-2.007705 -0.119162,-0.192824 0.07939,-0.645906 0.440893,-1.007366 0.361445,-0.361489 0.554364,-0.759491 0.429447,-0.88441 -0.124879,-0.124904 0.332168,-0.666768 1.015309,-1.204094 1.182575,-0.930226 1.235903,-1.137021 1.117108,-4.324556 -0.09719,-2.611101 0.03692,-3.508585 0.606874,-4.078644 0.401962,-0.401973 0.619376,-1.021843 0.483075,-1.377114 -0.186292,-0.485472 -0.01169,-0.570545 0.703464,-0.343399 0.523684,0.166198 1.18025,0.336211 1.458815,0.378528 0.278579,0.0424 0.759679,0.235456 1.068821,0.428594 1.375494,0.859304 1.679348,-0.819878 0.622702,-3.441027 -0.592385,-1.469267 -0.660647,-2.556617 -0.160704,-2.556617 0.803782,0 2.340618,1.449717 2.058634,1.941835 -0.167422,0.292302 -0.138274,0.381813 0.0642,0.198486 0.202353,-0.183345 0.6548,-0.09524 1.005589,0.195852 0.807967,0.670588 1.451227,-0.209938 1.461428,-1.998922 0.0038,-0.79635 0.247145,-1.236591 0.681515,-1.236591 0.370985,0 0.674512,-0.188285 0.674512,-0.41893 0,-0.952184 1.856867,-0.999886 2.664652,-0.0685 0.947633,1.092654 2.52071,1.235903 2.893851,0.263479 0.142369,-0.370971 0.77127,-0.674504 1.397337,-0.674504 0.712015,0 1.138213,-0.252575 1.138213,-0.674504 0,-0.392441 0.423091,-0.685499 1.011748,-0.699097 3.79256,-0.09203 4.998619,-0.326873 5.548889,-1.079382 0.497603,-0.680513 0.486138,-1.025737 -0.07124,-2.103434 -0.366476,-0.709183 -0.863857,-1.289288 -1.104823,-1.289288 -0.242916,0 -0.444638,-1.452778 -0.451437,-3.260105 -0.01171,-2.973328 -0.13032,-3.388682 -1.342861,-4.721549 -0.731213,-0.803796 -1.53468,-1.461427 -1.785503,-1.461427 z m 4.357928,14.567719 c -0.438435,-0.0013 -1.070171,0.03615 -1.922525,0.109779 -1.713695,0.148045 -3.318427,0.51113 -3.565741,0.807121 -0.7054,0.844228 -3.401576,2.052498 -4.580111,2.052498 -0.588072,0 -1.176741,-0.280799 -1.308623,-0.624446 -0.294095,-0.766425 -1.978783,-0.443104 -2.757746,0.529589 -0.303788,0.379391 -0.434098,1.163292 -0.288948,1.741594 0.163758,0.652435 0.06484,1.05128 -0.260854,1.05128 -0.288689,0 -0.380652,0.233382 -0.2046,0.518175 0.442974,0.716779 1.531661,-0.831528 1.531661,-2.178086 0,-0.623086 0.269718,-1.038106 0.6745,-1.038106 0.370985,0 0.674512,0.180509 0.674512,0.401362 0,0.951232 1.580406,0.847255 4.397458,-0.2907 1.662157,-0.671456 3.166206,-1.426462 3.342659,-1.67748 0.176454,-0.251005 1.254491,-0.481974 2.395025,-0.512907 1.140496,-0.03095 2.29674,-0.279376 2.569777,-0.552425 0.226361,-0.226389 0.03418,-0.335362 -0.696444,-0.337251 z m -30.416826,1.1997 c 0.236528,-0.01196 0.549087,0.268466 0.871237,0.870359 0.264804,0.494649 0.338692,0.89934 0.165123,0.89934 -0.173531,0 -0.217868,0.09744 -0.09838,0.216927 0.119421,0.119421 0.88279,0.02594 1.695929,-0.207265 1.280112,-0.367137 1.508546,-0.307588 1.704699,0.442641 0.124619,0.476569 0.609707,0.987929 1.077632,1.136472 0.467923,0.148505 0.851043,0.66114 0.851043,1.139104 0,1.265069 -1.202106,1.065487 -1.533417,-0.254698 -0.282931,-1.127169 -0.412215,-1.173296 -3.637781,-1.297187 -1.180341,-0.04537 -1.367176,-0.23453 -1.490392,-1.513248 -0.08863,-0.918536 0.09031,-1.417071 0.394322,-1.432445 z m 5.592769,1.320027 c 0.400208,0 0.602469,0.202357 0.449664,0.449672 -0.152843,0.247318 -0.355144,0.449667 -0.449665,0.449667 -0.09447,0 -0.296875,-0.202349 -0.449679,-0.449667 -0.152831,-0.247315 0.04952,-0.449672 0.44968,-0.449672 z m 2.636543,2.853472 c 0.04094,0.0061 0.09018,0.07539 0.144033,0.209902 0.129816,0.324612 0.113316,0.712187 -0.036,0.861578 -0.149478,0.149422 -0.255773,-0.116165 -0.236257,-0.590192 0.01338,-0.327396 0.06003,-0.491611 0.128258,-0.481288 z M 102.8764,55.042397 c -0.72001,0 -0.81059,0.224418 -0.57175,1.418393 0.39763,1.988205 1.07978,2.670621 2.35284,2.351104 1.25646,-0.315363 1.45176,0.462066 0.28631,1.140861 -0.71098,0.414059 -0.69412,0.460609 0.17654,0.472509 1.10555,0.01564 1.50972,0.802667 1.50972,2.940416 0,1.067041 0.22866,1.55352 0.78692,1.675722 0.89852,0.19675 3.70978,-0.97921 3.70978,-1.551884 0,-0.208771 0.85998,-0.340187 1.9111,-0.291585 2.53383,0.117081 3.88122,-0.510546 5.50844,-2.566281 0.41567,-0.525141 0.7099,-1.004324 0.90024,-1.433321 -0.64515,-0.604941 -1.36092,-1.289748 -2.12716,-2.040201 -0.0342,0.0061 -0.0644,0.0089 -0.0993,0.0158 -0.75248,0.150495 -1.64534,0.551012 -1.984,0.889676 -0.42619,0.42618 -1.11873,0.520461 -2.25009,0.307394 -0.89907,-0.169376 -2.13149,-0.298212 -2.7393,-0.286314 -0.60782,0.01196 -1.31605,-0.23685 -1.57385,-0.553303 -0.48938,-0.600652 -2.64014,-1.292746 -2.29844,-0.739497 0.10774,0.174235 0.0104,0.611312 -0.21691,0.970477 -0.32432,0.512749 -0.41469,0.440655 -0.41982,-0.33374 -0.009,-1.100229 -1.54982,-2.386234 -2.86135,-2.386234 z m -48.992941,3.597357 c 1.04912,0 1.43575,0.689838 0.551557,0.984531 -0.537888,0.179304 0.678242,1.564547 3.531483,4.022442 1.043857,0.899203 1.897917,1.860375 1.897917,2.135926 0,0.275565 0.202353,0.501488 0.44968,0.501488 0.247314,0 0.449665,0.202353 0.449665,0.449666 0,0.247315 -0.303529,0.449667 -0.674498,0.449667 -0.370984,0 -0.674513,-0.255669 -0.674513,-0.567359 0,-0.967747 -2.287105,-3.111666 -3.019443,-2.830631 -0.475291,0.182418 -0.598871,0.05276 -0.412788,-0.432097 0.176584,-0.460154 -0.220882,-0.988566 -1.186551,-1.577367 -1.930885,-1.177316 -2.575924,-1.11756 -2.575924,0.236257 0,0.782756 -0.246158,1.124178 -0.809774,1.124178 -0.445169,0 -1.032163,0.222415 -1.304218,0.494457 -0.35973,0.359744 -0.752753,0.236178 -1.441195,-0.452304 -0.803418,-0.803404 -0.861882,-1.082191 -0.386446,-1.84347 0.308114,-0.493342 0.71417,-0.896705 0.901955,-0.896705 0.582628,0 0.377534,0.546699 -0.445273,1.187409 -0.749413,0.583588 -0.749413,0.600014 0,0.339004 0.440596,-0.153427 0.786927,-0.05471 0.786927,0.223962 0,0.273771 0.216336,0.497981 0.481282,0.497981 0.764397,0 1.767061,-1.206214 1.767061,-2.126274 0,-1.138029 0.860895,-1.920761 2.113096,-1.920761 z m 0.584928,6.295378 c 0.247312,0 0.449664,0.202352 0.449664,0.449665 0,0.247327 -0.202352,0.44968 -0.449664,0.44968 -0.247316,0 -0.449668,-0.202353 -0.449668,-0.44968 0,-0.247313 0.202352,-0.449665 0.449668,-0.449665 z m -4.21916,2.248342 c 0.370931,0 0.549763,0.202366 0.396971,0.449679 -0.152842,0.247313 -0.581925,0.449666 -0.952894,0.449666 -0.370932,0 -0.548919,-0.202353 -0.396115,-0.449666 0.15283,-0.247313 0.581054,-0.449679 0.952038,-0.449679 z m -1.80659,0.925697 c 0.128125,0.01585 0.178467,0.12189 0.177441,0.310898 0,0.185485 -0.608863,0.681801 -1.349012,1.1031 -1.615218,0.919097 -1.81518,0.318459 -0.23801,-0.714913 0.766553,-0.502268 1.196079,-0.725321 1.409581,-0.699085 z m 13.373312,3.902988 c -0.382627,-0.0026 -0.925478,0.285999 -1.767073,0.831708 -1.60954,1.043105 -1.775027,1.321527 -1.614271,2.698021 0.214983,1.841286 0.683049,1.899528 2.936927,0.367996 1.475592,-1.002691 1.675385,-1.333911 1.421898,-2.360772 -0.258281,-1.046328 -0.485595,-1.532937 -0.977481,-1.536953 z m -32.304227,1.017025 c 0.370976,0 0.674503,0.202352 0.674503,0.449666 0,0.247325 -0.303527,0.449679 -0.674503,0.449679 -0.370979,0 -0.674504,-0.202354 -0.674504,-0.449679 0,-0.247314 0.303525,-0.449666 0.674504,-0.449666 z m 1.766166,0.1063 c 0.227668,0.0078 0.520583,0.0551 0.878294,0.144918 1.179439,0.29603 1.571821,1.250849 0.728061,1.772336 -0.772443,0.477383 -0.493376,1.416466 0.562086,1.89177 0.857027,0.386018 0.66789,0.462791 -1.236589,0.503243 -1.236593,0.02626 -2.022661,-0.09772 -1.746879,-0.274888 0.842638,-0.541304 1.19212,-2.333041 0.595499,-3.051956 -0.553455,-0.666872 -0.463429,-1.008058 0.219528,-0.985423 z m -15.274693,4.041759 c 0.399037,0.04224 0.737234,0.534065 1.033701,1.500072 0.453222,1.476711 0.424307,1.615947 -0.294219,1.428044 -0.804504,-0.210356 -0.953839,0.131246 -1.008249,2.30808 -0.01663,0.669495 -0.356993,1.151909 -0.916022,1.298071 -1.048045,0.274071 -1.904576,2.015207 -2.100767,4.269216 -0.133687,1.535873 -1.417538,0.788942 -1.417538,-0.824678 0,-0.556469 -0.252941,-1.105336 -0.562088,-1.219026 -0.309148,-0.11383 -0.02562,-0.349543 0.629718,-0.524321 0.948442,-0.252901 1.229216,-0.640738 1.376213,-1.900568 0.122177,-1.046287 -0.01889,-1.661154 -0.416259,-1.813607 -0.448861,-0.17223 -0.474221,-0.38377 -0.10099,-0.833461 0.274838,-0.33126 0.369495,-0.813321 0.209905,-1.071485 -0.159589,-0.258152 0.02562,-0.46899 0.410998,-0.46899 0.609484,0 0.927714,0.808124 0.753557,1.911093 -0.02923,0.185473 0.362436,0.337249 0.869482,0.337249 0.818173,0 0.905859,-0.239373 0.786022,-2.120994 -0.104234,-1.638245 0.02608,-2.15269 0.571756,-2.265028 0.05957,-0.01169 0.117769,-0.0156 0.174785,-0.0091 z m 15.520618,1.266455 c 1.886094,0.03393 4.026116,0.986799 5.604183,2.64269 0.7264,0.7622 1.687573,1.38589 2.135939,1.38589 0.448366,0 0.815023,0.222689 0.815023,0.494458 0,1.01171 -1.464131,3.534149 -1.896162,3.267135 -0.282219,-0.174427 -0.247769,-0.400247 0.09226,-0.610396 0.41011,-0.253461 0.371843,-0.658944 -0.15895,-1.685376 -0.38442,-0.743436 -0.599272,-1.451475 -0.476915,-1.573846 0.122278,-0.122927 -0.290041,-0.125137 -0.916889,-0.0053 -0.626873,0.119811 -1.13999,0.01547 -1.13999,-0.231862 0,-0.247301 -0.354118,-0.56871 -0.78693,-0.714029 -0.432813,-0.145305 -1.135909,-0.51885 -1.562421,-0.829953 -0.62486,-0.455696 -1.061535,-0.449744 -2.248348,0.02898 -0.81008,0.326749 -1.706362,0.608733 -1.991902,0.627082 -0.285719,0.01846 -0.41644,0.303463 -0.289811,0.633227 0.12653,0.329751 0.02968,0.598974 -0.215167,0.598974 -0.244982,0 -0.54491,0.520513 -0.666635,1.156664 -0.17888,0.935691 0.0049,1.241962 0.959955,1.601069 0.649233,0.244156 1.620428,0.951271 2.157873,1.571218 0.537446,0.619935 1.144499,1.0627 1.34901,0.984525 0.545314,-0.208395 0.748521,1.909156 0.23275,2.424875 -0.28644,0.286465 -0.824291,0.188187 -1.543087,-0.282803 -1.025382,-0.671731 -1.17989,-0.663543 -2.184227,0.115907 -0.594417,0.46131 -1.333225,0.750297 -1.642372,0.642884 -0.817322,-0.283776 -0.688985,-3.281546 0.1818,-4.243758 0.798703,-0.882491 0.830047,-0.863129 -1.686259,-1.049524 -1.059333,-0.07849 -1.15237,0.04587 -1.009105,1.346373 0.11404,1.035008 -0.155322,1.796948 -0.968725,2.742815 -0.619417,0.720213 -1.126511,1.827148 -1.126826,2.460011 -3.13e-4,0.632857 -0.283202,1.538242 -0.629717,2.012098 -0.605661,0.828243 -0.636957,0.818699 -0.795691,-0.251181 -0.238864,-1.610423 0.426961,-5.576424 0.966071,-5.756127 0.252758,-0.0842 0.459337,-0.511508 0.459337,-0.949398 0,-0.437908 0.455292,-1.291562 1.011759,-1.897048 0.556464,-0.605485 1.611119,-1.899944 2.344081,-2.876308 1.571954,-2.093862 1.973961,-2.488898 3.28821,-3.236388 0.675942,-0.384447 1.480627,-0.559081 2.337922,-0.543645 z m 1.719626,3.151197 c 0.216875,0 0.400972,0.108507 0.618296,0.32584 0.434654,0.434735 0.385769,0.551543 -0.234458,0.551543 -0.432312,0 -1.29505,0.556469 -1.916402,1.236595 -1.034779,1.132651 -1.085549,1.146775 -0.607727,0.170386 0.315487,-0.644496 0.33815,-0.953065 0.05796,-0.779899 -0.254917,0.157546 -0.590327,0.08097 -0.745643,-0.170384 -0.155354,-0.25137 0.03599,-0.456698 0.425074,-0.456698 0.388919,0 1.103668,-0.248601 1.588773,-0.551543 0.347999,-0.217336 0.597251,-0.32584 0.814127,-0.32584 z m 11.932933,1.018778 c 0.285272,0.0053 0.514952,0.197297 0.434734,0.569995 -0.04874,0.226706 -0.401963,0.477826 -0.785174,0.557704 -0.480282,0.100056 -0.61028,-0.08044 -0.418011,-0.581418 0.14255,-0.371477 0.483217,-0.551895 0.768451,-0.546281 z m -2.685703,0.913405 c 0.04094,0.0065 0.09018,0.07536 0.144032,0.209902 0.129817,0.324606 0.113317,0.712183 -0.036,0.86157 -0.149349,0.149425 -0.255775,-0.116176 -0.236255,-0.590191 0.01338,-0.327399 0.06003,-0.491611 0.128256,-0.481281 z m -9.396522,0.969593 c 0.317243,-0.0013 0.615958,0.09538 0.758817,0.320565 0.201452,0.317523 0.366263,0.679009 0.366263,0.80273 0,0.123709 -0.173842,0.498786 -0.386451,0.834346 -0.269487,0.425223 -0.479437,0.459347 -0.693839,0.112406 -0.169207,-0.273732 -0.161255,-0.734704 0.01754,-1.024054 0.218584,-0.353662 0.07982,-0.431968 -0.423319,-0.23888 -0.411584,0.157961 -0.748296,0.112919 -0.748296,-0.100056 0,-0.42451 0.580526,-0.703751 1.109246,-0.707012 z m -4.499348,1.781993 c -0.179779,-0.02976 -0.490364,0.255188 -0.842232,0.792191 -0.435189,0.664193 -0.661058,1.418402 -0.50147,1.676606 0.391437,0.633383 1.730645,0.594087 2.394985,-0.07031 0.735886,-0.735821 0.681159,-1.708221 -0.09659,-1.708221 -0.350383,0 -0.720774,-0.249199 -0.822041,-0.553311 -0.02744,-0.082 -0.07271,-0.127087 -0.132649,-0.136991 z m 7.459971,3.026486 c 0.137159,0.0091 0.3136,0.05522 0.539251,0.126438 0.556469,0.175623 1.568218,0.42465 2.248342,0.553298 0.680126,0.128647 1.236595,0.329233 1.236595,0.44617 0,0.358716 -4.963673,5.081607 -5.340686,5.081607 -0.194477,0 -0.596803,0.455516 -0.894973,1.012643 -0.298176,0.557146 -1.15817,1.366579 -1.911096,1.798673 -1.741841,0.999646 -5.897643,1.069086 -6.692343,0.111472 -0.307888,-0.370979 -0.751578,-0.674511 -0.986306,-0.674511 -0.234459,0 -0.745146,-0.31834 -1.133796,-0.706987 -0.633585,-0.633513 -0.635475,-0.777669 -0.02024,-1.392927 0.542708,-0.542695 0.885355,-0.579346 1.637968,-0.176535 0.523505,0.280142 0.952041,0.704624 0.952041,0.943248 0,0.238632 0.315263,0.433863 0.700856,0.433863 0.38559,0 0.576116,0.202356 0.423319,0.449669 -0.152943,0.247313 -0.08008,0.449669 0.161609,0.449669 0.241651,0 0.75931,0.122154 1.150524,0.272262 0.471569,0.180966 0.711378,0.02321 0.711378,-0.46899 0,-0.408275 0.252939,-0.709341 0.562087,-0.669242 1.858618,0.24135 3.439928,-0.0773 3.220577,-0.649029 -0.140109,-0.365132 0.13989,-0.713737 0.688581,-0.857185 0.672839,-0.175949 0.924796,-0.608113 0.924796,-1.585248 0,-0.778965 0.283297,-1.451893 0.6745,-1.601954 0.401923,-0.154217 0.674512,-0.830488 0.674512,-1.673969 0,-0.9471 0.06095,-1.250252 0.472509,-1.222548 z m 13.635026,0.833475 c 0.340977,-0.0295 0.91651,0.197415 1.794271,0.655176 0.708402,0.369463 1.669575,0.671874 2.135926,0.671874 0.46635,0 0.847535,0.156624 0.847535,0.348673 0,0.191902 -0.860036,0.289659 -1.911093,0.216916 l -1.911093,-0.132611 1.686259,0.788685 c 1.472888,0.688651 1.688468,0.988153 1.702049,2.368675 l 0.01482,1.580861 0.844028,-1.01176 c 0.464192,-0.556455 0.96342,-1.011751 1.109246,-1.011751 0.145877,0 0.265219,1.416472 0.265219,3.147683 v 0 c 0,3.039084 -0.53417,4.107374 -1.124178,2.248354 -0.157013,-0.494625 -0.44131,-0.899341 -0.632369,-0.899341 -0.191061,0 -0.603094,-0.774172 -0.915173,-1.719637 -0.68722,-2.083044 -1.921877,-2.997707 -3.154692,-2.337933 -1.033657,0.553238 -2.717318,0.607058 -2.717318,0.087 0,-0.205026 0.455293,-0.35696 1.011762,-0.337247 1.092198,0.0386 1.207408,-0.523241 0.657776,-3.224096 -0.191244,-0.939823 -0.140655,-1.401599 0.29777,-1.439466 z m -9.371931,1.77672 c 0.131584,0 0.966111,0.303507 1.853995,0.674504 0.88787,0.370974 2.171985,0.674504 2.853463,0.674504 1.144943,0 2.64963,1.09703 2.166685,1.57999 -0.115523,0.115563 -1.368334,-0.09151 -2.784086,-0.460202 -3.544023,-0.92313 -3.860144,-0.851602 -2.305454,0.523433 0.742046,0.65622 1.001015,1.069756 0.576168,0.918666 -0.991165,-0.352418 -1.486922,0.433969 -0.797493,1.264691 0.292054,0.351842 0.449848,0.883063 0.350427,1.181264 -0.09941,0.298211 -0.447015,-0.09898 -0.771998,-0.88354 -0.638166,-1.540733 -1.380614,-1.89704 -1.380614,-0.662193 0,0.564981 -0.132156,0.632811 -0.504984,0.259968 -0.277447,-0.276859 -0.783368,-0.397855 -1.124165,-0.266997 -0.340862,0.1308 -0.619206,0.02017 -0.619206,-0.245921 0,-0.265951 -0.303516,-0.367244 -0.6745,-0.224834 -0.37097,0.142466 -0.674498,0.120862 -0.674498,-0.0483 0,-0.49818 2.584422,-2.93603 3.112562,-2.93603 0.266339,0 0.484791,-0.30353 0.484791,-0.674504 0,-0.370997 0.107339,-0.674504 0.238907,-0.674504 z m 32.748582,0.209895 c 0.467027,-0.007 0.977547,0.0314 1.508871,0.117739 2.167724,0.351785 1.800301,1.021409 -0.560328,1.021409 -1.534055,0 -2.107559,0.19451 -2.318631,0.786932 -0.479177,1.345003 -2.543204,2.776761 -4.02684,2.793738 -1.125346,0.01296 -1.469391,0.245325 -1.694134,1.140864 -0.324346,1.29227 -1.228096,1.456403 -2.117488,0.384677 -0.545864,-0.657689 -0.501839,-0.704384 0.40312,-0.417157 0.864403,0.274326 1.11681,0.08713 1.675696,-1.25064 0.717005,-1.716001 2.339629,-2.581587 2.959734,-1.578249 0.299161,0.484045 0.513338,0.42528 1.053031,-0.288938 0.372907,-0.493435 0.684493,-1.227836 0.692992,-1.631818 0.01299,-0.651474 1.022949,-1.060197 2.423977,-1.078499 z m 6.719559,1.608095 c 0.429382,0.02064 0.763213,0.168451 0.763213,0.430369 0,0.247303 -0.271184,0.449659 -0.602457,0.449659 -0.331324,0 -0.832838,0.505881 -1.114561,1.124182 -0.707635,1.55359 -1.615842,1.473096 -1.219,-0.107966 0.1701,-0.677643 0.54567,-1.382653 0.835217,-1.566832 0.382795,-0.24353 0.908233,-0.349985 1.337588,-0.329344 z m -16.211807,2.23255 c 0.185485,-9.61e-4 0.337249,0.299999 0.337249,0.670989 0,0.370989 -0.187966,0.674512 -0.417153,0.674512 -0.229199,0 -0.482048,0.320866 -0.562094,0.714018 -0.08006,0.393173 -0.272952,0.585772 -0.429473,0.427708 -0.337756,-0.341124 0.584654,-2.482138 1.071471,-2.487227 z m 16.736167,1.795161 c 0.402443,0 0.559068,0.26365 0.401325,0.674504 -0.142317,0.370988 -0.439595,0.674509 -0.660426,0.674509 -0.220883,0 -0.401378,-0.303521 -0.401378,-0.674509 0,-0.370969 0.297226,-0.674504 0.660479,-0.674504 z m -20.118355,0.23887 c 0.115651,-0.0049 0.122148,0.204556 0.122148,0.623581 0,0.474408 0.123059,1.182648 0.273134,1.573843 0.150141,0.39122 0.04899,0.71051 -0.224832,0.71051 -0.273759,0 -0.497967,-0.20235 -0.497967,-0.44966 0,-0.24732 -0.303527,-0.44967 -0.674499,-0.44967 -0.896461,0 -0.850913,-0.273255 0.224833,-1.349012 0.436945,-0.436864 0.661647,-0.654872 0.777248,-0.659592 z"
       id="path8201"
       inkscape:connector-curvature="0" /></g></svg>
